<?xml version="1.0" standalone="no"?>
<!DOCTYPE svg PUBLIC "-//W3C//DTD SVG 20010904//EN"
 "http://www.w3.org/TR/2001/REC-SVG-20010904/DTD/svg10.dtd">
<svg version="1.0" xmlns="http://www.w3.org/2000/svg"
 width="56.000000pt" height="56.000000pt" viewBox="0 0 56.000000 56.000000"
 preserveAspectRatio="xMidYMid meet">

<g transform="translate(0.000000,56.000000) scale(0.100000,-0.100000)"
fill="#FF0000" stroke="none">
<path d="M205 536 c-100 -43 -126 -178 -50 -256 l36 -36 -23 -11 c-13 -6 -39
-23 -57 -39 -60 -50 -109 -191 -64 -182 12 2 20 17 25 48 22 128 191 206 313
143 67 -35 115 -105 115 -168 0 -16 6 -25 15 -25 21 0 19 55 -4 105 -21 47
-71 99 -112 115 l-28 12 33 32 c109 102 29 277 -126 276 -24 -1 -57 -7 -73
-14z m140 -36 c136 -66 71 -255 -82 -237 -64 7 -123 69 -123 130 0 55 79 127
139 127 14 0 43 -9 66 -20z"/>
</g>
</svg>
